<svg width="24" height="20" viewBox="0 0 24 20" fill="none" xmlns="http://www.w3.org/2000/svg">
<path fill-rule="evenodd" clip-rule="evenodd" d="M22.9583 19.3333C22.9583 19.3333 24.5 19.3333 24.5 17.7777C24.5 16.2222 22.9583 11.5555 16.7916 11.5555C10.625 11.5555 9.08331 16.2222 9.08331 17.7777C9.08331 19.3333 10.625 19.3333 10.625 19.3333H22.9583ZM10.6589 17.7777H22.9244C22.9316 17.7769 22.9388 17.7759 22.946 17.7746L22.9583 17.7715C22.9552 17.3608 22.7009 16.1693 21.7866 15.096C20.9356 14.0895 19.4402 13.1111 16.7916 13.1111C14.1446 13.1111 12.6492 14.0911 11.7966 15.096C10.8824 16.1693 10.6265 17.3624 10.625 17.7715C10.6363 17.7737 10.6476 17.7758 10.6589 17.7777ZM16.7916 8.4444C17.6094 8.4444 18.3937 8.11663 18.9719 7.53318C19.5501 6.94973 19.875 6.15841 19.875 5.33329C19.875 4.50817 19.5501 3.71685 18.9719 3.1334C18.3937 2.54996 17.6094 2.22218 16.7916 2.22218C15.9739 2.22218 15.1896 2.54996 14.6114 3.1334C14.0332 3.71685 13.7083 4.50817 13.7083 5.33329C13.7083 6.15841 14.0332 6.94973 14.6114 7.53318C15.1896 8.11663 15.9739 8.4444 16.7916 8.4444ZM21.4166 5.33329C21.4166 5.94613 21.297 6.55296 21.0646 7.11915C20.8322 7.68533 20.4915 8.19978 20.062 8.63312C19.6325 9.06646 19.1227 9.41021 18.5616 9.64473C18.0004 9.87925 17.399 9.99996 16.7916 9.99996C16.1843 9.99996 15.5829 9.87925 15.0217 9.64473C14.4606 9.41021 13.9507 9.06646 13.5213 8.63312C13.0918 8.19978 12.7511 7.68533 12.5187 7.11915C12.2863 6.55296 12.1666 5.94613 12.1666 5.33329C12.1666 4.09562 12.6539 2.90863 13.5213 2.03346C14.3886 1.15829 15.565 0.666626 16.7916 0.666626C18.0183 0.666626 19.1947 1.15829 20.062 2.03346C20.9294 2.90863 21.4166 4.09562 21.4166 5.33329ZM10.5263 11.9911C9.90962 11.7951 9.27392 11.6663 8.63006 11.6068C8.26828 11.5721 7.90506 11.555 7.54165 11.5555C1.37498 11.5555 -0.166687 16.2222 -0.166687 17.7777C-0.166687 18.8153 0.346688 19.3333 1.37498 19.3333H7.87465C7.6461 18.8477 7.53212 18.3152 7.54165 17.7777C7.54165 16.2066 8.12285 14.6013 9.22206 13.2604C9.59669 12.8031 10.033 12.3753 10.5263 11.9911ZM7.41831 13.1111C4.84681 13.1422 3.38685 14.1066 2.54665 15.096C1.62627 16.1755 1.37498 17.3717 1.37498 17.7777H5.99998C5.99998 16.1522 6.49794 14.5328 7.41831 13.1111ZM2.14581 6.11107C2.14581 4.87339 2.63309 3.68641 3.50044 2.81124C4.3678 1.93607 5.54419 1.4444 6.77081 1.4444C7.99744 1.4444 9.17383 1.93607 10.0412 2.81124C10.9085 3.68641 11.3958 4.87339 11.3958 6.11107C11.3958 7.34875 10.9085 8.53573 10.0412 9.4109C9.17383 10.2861 7.99744 10.7777 6.77081 10.7777C5.54419 10.7777 4.3678 10.2861 3.50044 9.4109C2.63309 8.53573 2.14581 7.34875 2.14581 6.11107ZM6.77081 2.99996C5.95306 2.99996 5.1688 3.32774 4.59057 3.91118C4.01233 4.49463 3.68748 5.28595 3.68748 6.11107C3.68748 6.93619 4.01233 7.72751 4.59057 8.31096C5.1688 8.8944 5.95306 9.22218 6.77081 9.22218C7.58856 9.22218 8.37282 8.8944 8.95106 8.31096C9.52929 7.72751 9.85415 6.93619 9.85415 6.11107C9.85415 5.28595 9.52929 4.49463 8.95106 3.91118C8.37282 3.32774 7.58856 2.99996 6.77081 2.99996Z" fill="#23A6F0"/>
</svg>
